<?xml version="1.0" encoding="UTF-8" standalone="no"?>
<!-- Generator: Adobe Illustrator 16.0.0, SVG Export Plug-In . SVG Version: 6.00 Build 0)  -->

<svg
   version="1.1"
   id="Layer_1"
   x="0px"
   y="0px"
   width="250.81798"
   height="250.81601"
   viewBox="0 0 250.81797 250.816"
   enable-background="new 0 0 841.89 595.28"
   xml:space="preserve"
   sodipodi:docname="logo-KI copy.svg"
   xmlns:inkscape="http://www.inkscape.org/namespaces/inkscape"
   xmlns:sodipodi="http://sodipodi.sourceforge.net/DTD/sodipodi-0.dtd"
   xmlns="http://www.w3.org/2000/svg"
   xmlns:svg="http://www.w3.org/2000/svg"><defs
   id="defs13" /><sodipodi:namedview
   id="namedview13"
   pagecolor="#ffffff"
   bordercolor="#000000"
   borderopacity="0.25"
   inkscape:showpageshadow="2"
   inkscape:pageopacity="0.0"
   inkscape:pagecheckerboard="0"
   inkscape:deskcolor="#d1d1d1"
   inkscape:export-bgcolor="#ffffffff"><inkscape:page
     x="-2.1574889e-22"
     y="0"
     width="250.81798"
     height="250.81599"
     id="page2"
     margin="0"
     bleed="0" /></sodipodi:namedview>
<rect
   x="-1.3478975e-06"
   y="-2.5124789e-06"
   fill="#2abad9"
   width="250.81799"
   height="250.81599"
   id="rect1" />
<rect
   x="101.631"
   y="62.388004"
   fill="#ffffff"
   width="6.2140002"
   height="63.664001"
   id="rect2" />
<rect
   x="80.959"
   y="45.174"
   fill="#ffffff"
   width="6.21"
   height="63.664001"
   id="rect3" />
<rect
   x="122.30401"
   y="79.661995"
   fill="#ffffff"
   width="6.2189999"
   height="63.667999"
   id="rect4" />
<rect
   x="163.64999"
   y="45.174"
   fill="#ffffff"
   width="6.2140002"
   height="63.664001"
   id="rect5" />
<rect
   x="142.97299"
   y="62.392002"
   fill="#ffffff"
   width="6.2140002"
   height="63.688999"
   id="rect6" />
<g
   id="g7"
   transform="translate(-42.766001,-66.184)">
	<polygon
   fill="#ffffff"
   points="172.256,243.368 172.256,237.927 195.012,237.927 195.012,243.368 186.743,243.368 186.743,266.43 195.169,266.43 195.169,271.822 172.101,271.822 172.101,266.43 180.525,266.43 180.525,243.368 "
   id="polygon6" />
	<polygon
   fill="#ffffff"
   points="159.135,237.853 166.04,237.853 156.464,251.711 166.875,271.743 159.656,271.743 151.966,256.731 147.467,263.218 147.467,271.743 141.191,271.743 141.191,237.853 147.467,237.853 147.467,254.589 "
   id="polygon7" />
</g>







</svg>
